<svg width="1024" height="1024" viewBox="0 0 1024 1024" fill="none" xmlns="http://www.w3.org/2000/svg">
  <rect x="374.9" y="264.9" width="342.9" height="58.3" rx="29.1" fill="white"/>
  <rect x="272" y="372.9" width="480" height="58.3" rx="29.1" fill="white"/>
  <rect x="426.3" y="480.9" width="291.4" height="58.3" rx="29.1" fill="white"/>
  <path d="M344.398393194707 722.6650283553874H368.8927221172023V708.0690926275992H369.8993383742911C373.42249527410206 715.6187145557656 380.97211720226846 724.1749527410208 395.9035916824197 724.1749527410208C416.7069943289225 724.1749527410208 432.98062381852554 707.5657844990548 432.98062381852554 677.1995274102079C432.98062381852554 645.9944234404536 416.0359168241966 630.3918714555765 395.9035916824197 630.3918714555765C380.63657844990547 630.3918714555765 373.42249527410206 639.4514177693761 369.8993383742911 646.8332703213609H369.22826086956525V601.1999999999999H344.398393194707ZM368.7249527410208 677.0317580340264C368.7249527410208 660.5903591682419 375.60349716446126 650.1886578449905 388.01843100189035 650.1886578449905C400.76890359168243 650.1886578449905 407.47967863894144 661.0936672967863 407.47967863894144 677.0317580340264C407.47967863894144 693.1376181474479 400.76890359168243 704.3781663516068 388.01843100189035 704.3781663516068C375.7712665406427 704.3781663516068 368.7249527410208 693.4731568998109 368.7249527410208 677.0317580340264Z" fill="white"/>
  <path d="M473.7485822306238 601.1999999999999H448.91871455576563V722.6650283553874H473.7485822306238Z" fill="white"/>
  <path d="M533.9777882797731 724.5104914933837C561.4919659735349 724.5104914933837 578.7722117202268 705.552551984877 578.7722117202268 677.3672967863894C578.7722117202268 649.1820415879016 561.4919659735349 630.3918714555765 533.9777882797731 630.3918714555765C506.4636105860113 630.3918714555765 489.3511342155009 649.1820415879016 489.3511342155009 677.3672967863894C489.3511342155009 705.552551984877 506.4636105860113 724.5104914933837 533.9777882797731 724.5104914933837ZM534.1455576559546 705.2170132325141C521.2273156899811 705.2170132325141 514.5165406427221 693.3053875236294 514.5165406427221 677.3672967863894C514.5165406427221 661.2614366729678 521.2273156899811 649.3498109640831 534.1455576559546 649.3498109640831C546.8960302457466 649.3498109640831 553.4390359168242 661.2614366729678 553.4390359168242 677.3672967863894C553.4390359168242 693.3053875236294 546.8960302457466 705.2170132325141 534.1455576559546 705.2170132325141Z" fill="white"/>
  <path d="M635.3104914933837 758.7354442344044C661.1469754253308 758.7354442344044 679.6016068052929 746.8238185255198 679.6016068052929 723.6716446124763V631.5662570888468H654.9395085066162V646.8332703213609H653.9328922495273C650.5775047258978 639.4514177693761 643.195652173913 630.3918714555765 627.9286389413988 630.3918714555765C607.7963137996219 630.3918714555765 590.8516068052929 645.6588846880907 590.8516068052929 676.5284499054819C590.8516068052929 706.8947069943289 607.2930056710775 721.3228733459357 627.9286389413988 721.3228733459357C642.5245746691871 721.3228733459357 650.5775047258978 713.9410207939508 653.9328922495273 706.559168241966H655.1072778827977V723.1683364839319C655.1072778827977 735.9188090737239 647.3898865784498 740.7841209829867 635.8137996219281 740.7841209829867C625.9154064272211 740.7841209829867 619.0368620037807 737.4287334593572 617.6947069943288 730.2146502835539H593.2003780718336C594.7103024574668 747.4948960302456 610.1450850661626 758.7354442344044 635.3104914933837 758.7354442344044ZM635.6460302457466 702.700472589792C623.063327032136 702.700472589792 616.3525519848771 692.6343100189035 616.3525519848771 676.863988657845C616.3525519848771 661.0936672967863 623.063327032136 650.1886578449905 635.6460302457466 650.1886578449905C648.0609640831757 650.1886578449905 655.1072778827977 660.5903591682419 655.1072778827977 676.863988657845C655.1072778827977 692.9698487712665 648.0609640831757 702.700472589792 635.6460302457466 702.700472589792Z" fill="white"/>
</svg>
