<svg width="1024" height="1024" viewBox="0 0 1024 1024" fill="none" xmlns="http://www.w3.org/2000/svg">
  <rect x="374.9" y="264.9" width="342.9" height="58.3" rx="29.1" fill="white"/>
  <rect x="272" y="372.9" width="480" height="58.3" rx="29.1" fill="white"/>
  <rect x="426.3" y="480.9" width="291.4" height="58.3" rx="29.1" fill="white"/>
  <path d="M421.4884215500945 601.1999999999999H396.6585538752363V722.6650283553874H421.4884215500945Z" fill="white"/>
  <path d="M481.7176275992438 724.5104914933837C509.23180529300566 724.5104914933837 526.5120510396976 705.552551984877 526.5120510396976 677.3672967863894C526.5120510396976 649.1820415879016 509.23180529300566 630.3918714555765 481.7176275992438 630.3918714555765C454.20344990548205 630.3918714555765 437.0909735349716 649.1820415879016 437.0909735349716 677.3672967863894C437.0909735349716 705.552551984877 454.20344990548205 724.5104914933837 481.7176275992438 724.5104914933837ZM481.8853969754253 705.2170132325141C468.9671550094518 705.2170132325141 462.2563799621928 693.3053875236294 462.2563799621928 677.3672967863894C462.2563799621928 661.2614366729678 468.9671550094518 649.3498109640831 481.8853969754253 649.3498109640831C494.6358695652174 649.3498109640831 501.17887523629486 661.2614366729678 501.17887523629486 677.3672967863894C501.17887523629486 693.3053875236294 494.6358695652174 705.2170132325141 481.8853969754253 705.2170132325141Z" fill="white"/>
  <path d="M583.0503308128544 758.7354442344044C608.8868147448015 758.7354442344044 627.3414461247637 746.8238185255198 627.3414461247637 723.6716446124763V631.5662570888468H602.679347826087V646.8332703213609H601.6727315689981C598.3173440453686 639.4514177693761 590.9354914933838 630.3918714555765 575.6684782608696 630.3918714555765C555.5361531190927 630.3918714555765 538.5914461247637 645.6588846880907 538.5914461247637 676.5284499054819C538.5914461247637 706.8947069943289 555.0328449905483 721.3228733459357 575.6684782608696 721.3228733459357C590.2644139886579 721.3228733459357 598.3173440453686 713.9410207939508 601.6727315689981 706.559168241966H602.8471172022685V723.1683364839319C602.8471172022685 735.9188090737239 595.1297258979206 740.7841209829867 583.5536389413988 740.7841209829867C573.6552457466919 740.7841209829867 566.7767013232515 737.4287334593572 565.4345463137996 730.2146502835539H540.9402173913044C542.4501417769376 747.4948960302456 557.8849243856333 758.7354442344044 583.0503308128544 758.7354442344044ZM583.3858695652174 702.700472589792C570.8031663516068 702.700472589792 564.0923913043479 692.6343100189035 564.0923913043479 676.863988657845C564.0923913043479 661.0936672967863 570.8031663516068 650.1886578449905 583.3858695652174 650.1886578449905C595.8008034026465 650.1886578449905 602.8471172022685 660.5903591682419 602.8471172022685 676.863988657845C602.8471172022685 692.9698487712665 595.8008034026465 702.700472589792 583.3858695652174 702.700472589792Z" fill="white"/>
</svg>
