<svg width="1024" height="1024" viewBox="0 0 1024 1024" fill="none" xmlns="http://www.w3.org/2000/svg">
  <rect x="374.9" y="274.8" width="342.9" height="58.3" rx="29.1" fill="white"/>
  <rect x="272" y="382.8" width="480" height="58.3" rx="29.1" fill="white"/>
  <rect x="426.3" y="490.8" width="291.4" height="58.3" rx="29.1" fill="white"/>
  <path d="M250.69747899159665 716.6457983193277H273.0840336134454V690.3264705882352L279.43697478991595 683.2172268907563L301.97478991596637 716.6457983193277H328.29411764705884L296.07563025210084 670.05756302521L326.6302521008403 634.5113445378151H300.9159663865546L274.29411764705884 665.9735294117647H273.0840336134454V607.1331932773109H250.69747899159665Z" fill="white"/>
  <path d="M389.7058823529412 681.7046218487394C389.7058823529412 692.8978991596638 381.9915966386555 698.7970588235294 373.8235294117647 698.7970588235294C365.05042016806726 698.7970588235294 359.4537815126051 692.5953781512604 359.4537815126051 682.9147058823529V634.5113445378151H337.06722689075633V686.8474789915966C337.06722689075633 706.05756302521 348.2605042016807 717.7046218487394 364.74789915966386 717.7046218487394C377.1512605042017 717.7046218487394 385.92436974789916 711.3516806722689 389.7058823529412 701.822268907563H390.61344537815125V716.6457983193277H412.09243697478996V634.5113445378151H389.7058823529412Z" fill="white"/>
  <path d="M429.48739495798316 716.6457983193277H451.8739495798319V669.9063025210083C451.8739495798319 659.9231092436975 459.2857142857142 652.8138655462185 469.4201680672268 652.8138655462185C472.59663865546213 652.8138655462185 476.8319327731092 653.4189075630252 478.94957983193274 654.0239495798319V634.05756302521C476.9831932773109 633.603781512605 474.1092436974789 633.3012605042017 471.8403361344537 633.3012605042017C462.6134453781512 633.3012605042017 455.05042016806715 638.5953781512604 452.0252100840336 648.7298319327731H451.1176470588235V634.5113445378151H429.48739495798316Z" fill="white"/>
  <path d="M512.2268907563025 607.1331932773109H489.84033613445376V716.6457983193277H512.2268907563025Z" fill="white"/>
  <path d="M587.7058823529412 607.1331932773109H565.3193277310925V716.6457983193277H587.7058823529412Z" fill="white"/>
  <path d="M642.0084033613446 718.3096638655462C666.8151260504202 718.3096638655462 682.3949579831933 701.2172268907563 682.3949579831933 675.8054621848739C682.3949579831933 650.3936974789916 666.8151260504202 633.4525210084033 642.0084033613446 633.4525210084033C617.2016806722689 633.4525210084033 601.7731092436975 650.3936974789916 601.7731092436975 675.8054621848739C601.7731092436975 701.2172268907563 617.2016806722689 718.3096638655462 642.0084033613446 718.3096638655462ZM642.1596638655462 700.9147058823529C630.5126050420168 700.9147058823529 624.4621848739496 690.1752100840336 624.4621848739496 675.8054621848739C624.4621848739496 661.2844537815125 630.5126050420168 650.5449579831933 642.1596638655462 650.5449579831933C653.655462184874 650.5449579831933 659.5546218487395 661.2844537815125 659.5546218487395 675.8054621848739C659.5546218487395 690.1752100840336 653.655462184874 700.9147058823529 642.1596638655462 700.9147058823529Z" fill="white"/>
  <path d="M733.3697478991596 749.166806722689C756.6638655462185 749.166806722689 773.3025210084033 738.4273109243697 773.3025210084033 717.5533613445377V634.5113445378151H751.0672268907563V648.2760504201681H750.1596638655462C747.1344537815125 641.6205882352941 740.4789915966386 633.4525210084033 726.7142857142857 633.4525210084033C708.563025210084 633.4525210084033 693.2857142857142 647.2172268907563 693.2857142857142 675.0491596638656C693.2857142857142 702.4273109243697 708.109243697479 715.4357142857142 726.7142857142857 715.4357142857142C739.8739495798319 715.4357142857142 747.1344537815125 708.7802521008404 750.1596638655462 702.1247899159664H751.218487394958V717.0995798319327C751.218487394958 728.5953781512604 744.2605042016806 732.9819327731092 733.8235294117646 732.9819327731092C724.8991596638655 732.9819327731092 718.6974789915967 729.9567226890756 717.4873949579832 723.4525210084033H695.4033613445378C696.7647058823529 739.0323529411764 710.6806722689075 749.166806722689 733.3697478991596 749.166806722689ZM733.672268907563 698.6457983193277C722.3277310924369 698.6457983193277 716.2773109243698 689.5701680672269 716.2773109243698 675.3516806722689C716.2773109243698 661.1331932773109 722.3277310924369 651.3012605042017 733.672268907563 651.3012605042017C744.8655462184873 651.3012605042017 751.218487394958 660.6794117647058 751.218487394958 675.3516806722689C751.218487394958 689.8726890756302 744.8655462184873 698.6457983193277 733.672268907563 698.6457983193277Z" fill="white"/>
</svg>
